<svg xmlns="http://www.w3.org/2000/svg" xmlns:xlink="http://www.w3.org/1999/xlink" width="48" height="48" viewBox="0 0 48 48">
  <defs>
    <clipPath id="clip-path">
      <rect id="Rectangle_113688" data-name="Rectangle 113688" width="34.834" height="39.927" fill="none"/>
    </clipPath>
  </defs>
  <g id="Gaming_Headphones" data-name="Gaming Headphones" transform="translate(2377 2733)">
    <rect id="Rectangle_114166" data-name="Rectangle 114166" width="48" height="48" transform="translate(-2377 -2733)" fill="#fff" opacity="0"/>
    <g id="Group_333624" data-name="Group 333624" transform="translate(-2370 -2729)">
      <g id="Group_332725" data-name="Group 332725" clip-path="url(#clip-path)">
        <line id="Line_55176" data-name="Line 55176" y2="7.551" transform="translate(27.534 32.288)" fill="none" stroke="#b2b9bf" stroke-miterlimit="10" stroke-width="2"/>
        <path id="Path_337895" data-name="Path 337895" d="M40.835,59.92c.373-.085-2.138,8.562-10.466,8.246" transform="translate(-14.851 -29.301)" fill="none" stroke="#b2b9bf" stroke-miterlimit="10" stroke-width="2"/>
        <path id="Path_337896" data-name="Path 337896" d="M0,0H2.235V5.05H0Z" transform="translate(10.693 39.645) rotate(-86.804)" fill="#1a2024"/>
        <path id="Path_337897" data-name="Path 337897" d="M17.308.007A17.455,17.455,0,0,1,34.486,13.9a14.077,14.077,0,0,1,.338,3.138c0,.122.067.289-.066.353s-.226-.089-.33-.155a4.786,4.786,0,0,0-1.577-.706c-.407-.084-.5-.32-.532-.668a12.985,12.985,0,0,0-.666-3.162,14.863,14.863,0,0,0-6.713-8.261,14.326,14.326,0,0,0-6.928-2A14.67,14.67,0,0,0,6.21,7.464a14.644,14.644,0,0,0-3.576,7.451c-.065.366-.1.739-.13,1.11a.469.469,0,0,1-.41.473,5.373,5.373,0,0,0-1.751.786c-.081.054-.165.168-.269.1S.021,17.2.02,17.1a14.907,14.907,0,0,1,.812-4.965,17.244,17.244,0,0,1,13-11.76A13.126,13.126,0,0,1,17.308.007" transform="translate(-0.006 0)" fill="#b2b9bf"/>
        <path id="Path_337898" data-name="Path 337898" d="M14.773,39.4c0,1.658.008,3.316,0,4.974a3.743,3.743,0,0,1-5.731,3.28,3.335,3.335,0,0,1-1.759-2.886c-.05-3.577-.036-7.156-.008-10.734a3.661,3.661,0,0,1,2.434-3.213,3.755,3.755,0,0,1,5.068,3.606c-.009,1.658,0,3.316,0,4.974" transform="translate(-3.544 -14.963)" fill="#1a2024"/>
        <path id="Path_337899" data-name="Path 337899" d="M53.687,39.4c0,1.658.008,3.316,0,4.974a3.743,3.743,0,0,1-5.731,3.28A3.335,3.335,0,0,1,46.2,44.769c-.05-3.577-.036-7.156-.008-10.734a3.661,3.661,0,0,1,2.434-3.213,3.755,3.755,0,0,1,5.068,3.606c-.009,1.658,0,3.316,0,4.974" transform="translate(-22.574 -14.963)" fill="#1a2024"/>
        <path id="Path_337900" data-name="Path 337900" d="M2.383,37.13c0,2.43-.007,4.861,0,7.291a28.357,28.357,0,0,0,.072,3.354c.036.29-.049.329-.313.226A3.461,3.461,0,0,1,.021,45.02C0,43.3-.016,41.572.025,39.849a3.324,3.324,0,0,1,2.014-3.01c.41-.207.441-.173.344.291" transform="translate(0 -17.955)" fill="#b2b9bf"/>
        <path id="Path_337901" data-name="Path 337901" d="M65.793,42.411c0,.875.014,1.75,0,2.624a3.478,3.478,0,0,1-2.122,2.982c-.259.1-.334.074-.318-.223.17-3.316.036-6.636.073-9.954A6.528,6.528,0,0,0,63.35,37c-.03-.248.047-.286.279-.2a3.492,3.492,0,0,1,2.159,2.956c.021.887,0,1.775,0,2.663h0" transform="translate(-30.976 -17.973)" fill="#b2b9bf"/>
      </g>
    </g>
  </g>
</svg>