<svg xmlns="http://www.w3.org/2000/svg" xmlns:xlink="http://www.w3.org/1999/xlink" width="48" height="48" viewBox="0 0 48 48">
  <defs>
    <clipPath id="clip-path">
      <rect id="Rectangle_114003" data-name="Rectangle 114003" width="35.838" height="34.718" fill="#b2b9bf"/>
    </clipPath>
  </defs>
  <g id="boAt_Neckbands" data-name="boAt Neckbands" transform="translate(2377 2866)">
    <rect id="Rectangle_114164" data-name="Rectangle 114164" width="48" height="48" transform="translate(-2377 -2866)" fill="#fff" opacity="0"/>
    <g id="Group_333620" data-name="Group 333620" transform="translate(-2370.696 -2859)" clip-path="url(#clip-path)">
      <path id="Path_337517" data-name="Path 337517" d="M35.4,17.042l-2.993-.23v0a14.542,14.542,0,0,0-.276-3.4A12.681,12.681,0,0,0,29.11,7.125C26.666,4.461,22.945,3.075,18.05,3,13.242,2.934,9.526,4.21,7,6.8a13.208,13.208,0,0,0-3.338,6.489,15.571,15.571,0,0,0-.395,3.579l-3,.13C.259,16.7,0,9.7,4.831,4.725,7.952,1.509,12.414-.08,18.094,0c5.769.084,10.228,1.807,13.253,5.12C35.88,10.089,35.424,16.76,35.4,17.042Z" transform="translate(0.007 0.065)" fill="#b2b9bf"/>
      <path id="Path_337518" data-name="Path 337518" d="M7.975,37.829a2.567,2.567,0,0,1-1.162-.286l.368-.654L7,37.216l.182-.328a1.607,1.607,0,0,0,1.575-.043,3.516,3.516,0,0,0,1.194-2.281,22.735,22.735,0,0,0,.078-6.573c-.436-4.4-.291-7.678.433-9.756.576-1.654,1.344-1.95,1.43-1.978l.235.713.014-.005c-.024.01-2.342,1.116-1.365,10.953.527,5.3-.017,8.517-1.615,9.561A2.129,2.129,0,0,1,7.975,37.829Z" transform="translate(-1.473 -3.517)" fill="#b2b9bf"/>
      <path id="Path_340873" data-name="Path 340873" d="M13.918,17.493l-1.861-2.437a.324.324,0,0,1,.061-.455l2.26-1.726a.324.324,0,0,1,.455.06l1.862,2.437a1.747,1.747,0,1,1-2.776,2.12" transform="translate(-2.606 -2.784)" fill="#1a2024"/>
      <path id="Path_337520" data-name="Path 337520" d="M36.516,38.4a2.362,2.362,0,0,1-1.432-.481c-1.656-1.233-2.223-4.6-1.686-10,.293-2.947.462-6.976-.395-9.436-.443-1.273-.952-1.511-.957-1.513l.235-.713c.086.028.854.324,1.43,1.978.724,2.078.869,5.361.433,9.756a23.232,23.232,0,0,0,.1,6.809,4.151,4.151,0,0,0,1.274,2.5,1.626,1.626,0,0,0,1.513.259l.283.7A2.264,2.264,0,0,1,36.516,38.4Z" transform="translate(-6.96 -3.517)" fill="#b2b9bf"/>
      <path id="Path_340874" data-name="Path 340874" d="M5.633,38.636h0a1.891,1.891,0,0,1-2.26-1.428L.047,22.488a1.89,1.89,0,1,1,3.688-.833L7.06,36.376a1.891,1.891,0,0,1-1.428,2.26" transform="translate(0 -4.386)" fill="#1a2024"/>
      <path id="Path_340875" data-name="Path 340875" d="M38.184,38.636h0a1.891,1.891,0,0,0,2.26-1.428l3.326-14.72a1.89,1.89,0,1,0-3.688-.833l-3.326,14.72a1.891,1.891,0,0,0,1.428,2.26" transform="translate(-7.978 -4.386)" fill="#1a2024"/>
      <path id="Path_340876" data-name="Path 340876" d="M30.61,17.493l1.861-2.437a.324.324,0,0,0-.061-.455l-2.26-1.726a.324.324,0,0,0-.455.06l-1.862,2.437a1.747,1.747,0,1,0,2.776,2.12" transform="translate(-5.971 -2.784)" fill="#1a2024"/>
    </g>
  </g>
</svg>