<svg xmlns="http://www.w3.org/2000/svg" xmlns:xlink="http://www.w3.org/1999/xlink" width="48" height="48" viewBox="0 0 48 48">
  <defs>
    <clipPath id="clip-path">
      <rect id="Rectangle_114019" data-name="Rectangle 114019" width="21.428" height="35.713" fill="#fff" stroke="#707070" stroke-width="1"/>
    </clipPath>
    <clipPath id="clip-path-2">
      <rect id="Rectangle_114018" data-name="Rectangle 114018" width="40.306" height="38.726" fill="#fff" stroke="#707070" stroke-width="1"/>
    </clipPath>
    <clipPath id="clip-path-3">
      <rect id="Rectangle_114017" data-name="Rectangle 114017" width="22.285" height="82.739" fill="none"/>
    </clipPath>
  </defs>
  <g id="Trimmers" transform="translate(1922 2866)">
    <rect id="Rectangle_114177" data-name="Rectangle 114177" width="48" height="48" transform="translate(-1922 -2866)" fill="#fff" opacity="0"/>
    <g id="Mask_Group_208095" data-name="Mask Group 208095" transform="translate(-1909 -2860)" clip-path="url(#clip-path)">
      <g id="Mask_Group_208094" data-name="Mask Group 208094" transform="translate(-11.428 -3.656)" clip-path="url(#clip-path-2)">
        <g id="Group_333665" data-name="Group 333665" transform="translate(9.011 4.831)">
          <g id="Group_333664" data-name="Group 333664" transform="translate(0 0)" clip-path="url(#clip-path-3)">
            <path id="Path_340895" data-name="Path 340895" d="M16.336,0a1.208,1.208,0,0,1,.52,1.148c-.016.679.008,1.359-.007,2.038-.008.375.112.509.443.527,1.364.077,2.11,1.154,1.958,2.728-.137,1.4-.244,2.809-.486,4.2a2.209,2.209,0,0,1-.052.269c-.064.2-.051.5-.233.577-.219.092-.3-.217-.425-.364a7.7,7.7,0,0,0-5.792-2.914c-1.652-.056-3.307-.051-4.959,0a7.6,7.6,0,0,0-5.823,2.943c-.407.493-.47.478-.637-.188a22.661,22.661,0,0,1-.66-4.937,2.023,2.023,0,0,1,1.9-2.306c.368-.011.512-.133.5-.572-.026-.659.007-1.322-.011-1.983A1.278,1.278,0,0,1,3.077,0h.668a1.193,1.193,0,0,1,.55,1.074c.011.512.014,1.023.014,1.535,0,1.142,0,1.126.986,1.1.344-.008.434-.168.426-.531-.015-.658.011-1.316-.008-1.974A1.3,1.3,0,0,1,6.225,0h.668a1.239,1.239,0,0,1,.555,1.128c.009.494.01.987.01,1.48,0,1.142,0,1.126.986,1.1.344-.008.435-.168.426-.531-.015-.658.011-1.316-.008-1.973A1.3,1.3,0,0,1,9.373,0h.668A1.239,1.239,0,0,1,10.6,1.128c.009.494.009.986.01,1.48,0,1.142,0,1.126.986,1.1.343-.008.433-.168.426-.531-.016-.676.009-1.353-.008-2.028A1.26,1.26,0,0,1,12.521,0h.668a1.194,1.194,0,0,1,.52,1.141c-.016.474-.007.949,0,1.425.011,1.26-.147,1.12.989,1.144.345.008.485-.117.472-.532-.022-.674.008-1.352-.01-2.028A1.256,1.256,0,0,1,15.669,0Z" transform="translate(2.945 0)" fill="#192024"/>
            <path id="Path_340896" data-name="Path 340896" d="M9.828,10.5a19.562,19.562,0,0,1,3.7.184c3.286.7,5.767,4.082,5.807,7.928.019,1.821-.221,3.622-.341,5.432-.125,1.864-.286,3.726-.431,5.589q-.273,3.507-.544,7.014c-.172,2.247-.321,4.5-.512,6.741-.221,2.591-.247,5.211-.676,7.769-.609,3.631-3.608,6.9-7.741,6.55-3.326-.277-6.223-3.561-6.528-7.484Q2.08,44,1.6,37.783,1.175,32.194.746,26.6.483,23.234.2,19.866c-.386-4.545,2.16-8.458,6.045-9.232A19.8,19.8,0,0,1,9.828,10.5m-.056,4.628c-2.877,0-5.213,2.653-5.233,5.946-.019,3.316,2.322,6.041,5.2,6.05,2.9.01,5.238-2.657,5.241-5.985,0-3.362-2.289-6.009-5.207-6.011M6.892,37.985H6.9c0,.936-.019,1.872,0,2.808a3.1,3.1,0,0,0,2.652,3.179,2.933,2.933,0,0,0,3.037-2.747,35.173,35.173,0,0,0,.032-6.263A2.887,2.887,0,0,0,9.387,32.01c-1.43.131-2.48,1.577-2.495,3.442-.006.844,0,1.688,0,2.533" transform="translate(2.948 -1.242)" fill="#b2b9bf"/>
            <path id="Path_340897" data-name="Path 340897" d="M8.937,22.046a3.361,3.361,0,0,1,6.721.071,3.413,3.413,0,0,1-3.375,3.366,3.372,3.372,0,0,1-3.346-3.436" transform="translate(-1.059 -2.218)" fill="#b2b9bf"/>
            <path id="Path_340898" data-name="Path 340898" d="M12.422,46.487a2.1,2.1,0,0,1-2.089-2.111,2.165,2.165,0,0,1,2.128-2.1,2.141,2.141,0,0,1,2.106,2.169,2.074,2.074,0,0,1-2.145,2.045" transform="translate(-1.224 -5.007)" fill="#b2b9bf"/>
            <path id="Path_340899" data-name="Path 340899" d="M.344,22.32,0,83.51s.266,1.866,3.285,1.866H15.269s2.841.363,2.841-4.1.377-58.96.377-58.96L13.76,30.8H5.06Z" transform="translate(3.111 -2.644)" fill="#b2b9bf"/>
            <rect id="Rectangle_114016" data-name="Rectangle 114016" width="14.466" height="15.33" transform="translate(5.464 13.62)" fill="#b2b9bf"/>
            <path id="Path_340900" data-name="Path 340900" d="M11.756,25.668a6.849,6.849,0,1,1-6.849,6.849,6.848,6.848,0,0,1,6.849-6.849" transform="translate(-0.581 -3.041)" fill="#b2b9bf"/>
            <ellipse id="Ellipse_16365" data-name="Ellipse 16365" cx="4.312" cy="4.312" rx="4.312" ry="4.312" transform="translate(8.386 20.852)" fill="none" stroke="#192024" stroke-miterlimit="10" stroke-width="1"/>
            <path id="Path_340901" data-name="Path 340901" d="M11.265,29.2a2.824,2.824,0,1,1-2.824,2.824A2.824,2.824,0,0,1,11.265,29.2" transform="translate(1.432 -6.862)" fill="#192024"/>
            <path id="Path_340902" data-name="Path 340902" d="M14.159,76.893H8.2a4.667,4.667,0,0,1-4.667-4.667V51.959A4.667,4.667,0,0,1,8.2,47.292h5.963a4.667,4.667,0,0,1,4.667,4.667V72.226a4.667,4.667,0,0,1-4.667,4.667" transform="translate(1.177 -7.183)" fill="#4e5358"/>
          </g>
        </g>
      </g>
    </g>
  </g>
</svg>