<svg xmlns="http://www.w3.org/2000/svg" xmlns:xlink="http://www.w3.org/1999/xlink" width="48" height="48" viewBox="0 0 48 48">
  <defs>
    <clipPath id="clip-path">
      <rect id="Rectangle_113490" data-name="Rectangle 113490" width="7.399" height="7.383" fill="#192024"/>
    </clipPath>
    <clipPath id="clip-path-2">
      <rect id="Rectangle_113490-2" data-name="Rectangle 113490" width="5.044" height="5.033" fill="#192024"/>
    </clipPath>
  </defs>
  <g id="Collections" transform="translate(1922 2799)">
    <rect id="Rectangle_114178" data-name="Rectangle 114178" width="48" height="48" transform="translate(-1922 -2799)" fill="#fff" opacity="0"/>
    <g id="Group_333670" data-name="Group 333670" transform="translate(-1916 -2793)">
      <g id="Group_332282" data-name="Group 332282" transform="translate(0 7.999)">
        <ellipse id="Ellipse_16289" data-name="Ellipse 16289" cx="0.982" cy="2.29" rx="0.982" ry="2.29" transform="translate(33.788 8.792) rotate(30)" fill="#b2b9bf"/>
        <path id="Path_337513" data-name="Path 337513" d="M1.244,0c.542,0,.719,1.031.719,2.477S1.524,5.094.982,5.094,0,3.922,0,2.477.7,0,1.244,0Z" transform="translate(4.247 12.223) rotate(150)" fill="#b2b9bf"/>
        <g id="Group_332174" data-name="Group 332174" transform="translate(0.403 0)">
          <path id="Path_337506" data-name="Path 337506" d="M105,57.117a15.738,15.738,0,0,1-4.3,1.18v10.68s.379,1.891,1.582,1.96,2.974,0,2.974,0,1.668-.413,1.753-1.874c.057-.966.122-7.548.158-11.891,0-.405.007-.782.009-1.142A18.979,18.979,0,0,1,105,57.117" transform="translate(-93.527 -43.316)" fill="#b2b8bd"/>
          <path id="Path_337507" data-name="Path 337507" d="M121.065,57.117a15.737,15.737,0,0,0,4.3,1.18v10.68s-.379,1.891-1.582,1.96-2.974,0-2.974,0-1.668-.413-1.753-1.874c-.057-.966-.122-7.548-.158-11.891,0-.405-.007-.782-.009-1.142a18.979,18.979,0,0,0,2.173,1.089" transform="translate(-97.542 -43.316)" fill="#b2b8bd"/>
          <path id="Path_337508" data-name="Path 337508" d="M131.672,46.469a9.5,9.5,0,0,0-.541-1.34,11.559,11.559,0,0,0-2.007-2.881,10.886,10.886,0,0,0-4.034-2.664,10.168,10.168,0,0,0-2.938-.7,6.3,6.3,0,0,0-5.684,3.581,8.594,8.594,0,0,0-.542,1.405,5.7,5.7,0,0,0,.027,3.566,6.46,6.46,0,0,0,1.837,2.761,11.756,11.756,0,0,0,3.149,1.859c2.3.984,5.119,1.506,7.516.524l.072-.03a3.851,3.851,0,0,0,1.526-.963c1.149-1.333,2.169-3.326,1.618-5.117m-1.008,3.878c-.494.906-1.179,1.485-1.532,1.294s-.24-1.082.253-1.989,1.179-1.486,1.532-1.294.24,1.082-.253,1.989" transform="translate(-96.828 -38.876)" fill="#192024"/>
          <path id="Path_337509" data-name="Path 337509" d="M91.65,46.469a9.31,9.31,0,0,1,.541-1.34A11.555,11.555,0,0,1,94.2,42.248a10.883,10.883,0,0,1,4.034-2.664,10.169,10.169,0,0,1,2.938-.7,6.1,6.1,0,0,1,3.529,1.08,6.163,6.163,0,0,1,2.155,2.5,8.594,8.594,0,0,1,.542,1.405,5.7,5.7,0,0,1-.027,3.566,6.46,6.46,0,0,1-1.837,2.761,11.757,11.757,0,0,1-3.149,1.859c-2.3.984-5.119,1.506-7.516.524l-.072-.03a3.851,3.851,0,0,1-1.526-.963c-1.149-1.333-2.168-3.326-1.617-5.117m1.008,3.878c.493.906,1.179,1.485,1.532,1.294s.239-1.082-.254-1.989-1.179-1.486-1.532-1.294-.239,1.082.254,1.989" transform="translate(-91.497 -38.876)" fill="#192024"/>
        </g>
      </g>
      <g id="Group_332284" data-name="Group 332284" transform="translate(24.555)">
        <g id="Group_332250" data-name="Group 332250" clip-path="url(#clip-path)">
          <path id="Path_337633" data-name="Path 337633" d="M3.7,0a.21.21,0,0,1,.207.172c.1.332.188.665.288,1A2.846,2.846,0,0,0,6.209,3.187c.334.1.67.192,1,.29.125.036.185.106.185.206s-.06.17-.184.207c-.39.114-.786.21-1.169.344A2.818,2.818,0,0,0,4.2,6.179c-.1.337-.194.676-.292,1.014-.038.13-.11.192-.212.189s-.167-.063-.2-.189c-.1-.358-.2-.72-.311-1.075a2.838,2.838,0,0,0-2-1.943c-.328-.1-.658-.19-.988-.285C.063,3.854,0,3.786,0,3.683s.062-.171.193-.209c.347-.1.7-.192,1.04-.3A2.857,2.857,0,0,0,3.22,1.125C3.312.808,3.4.49,3.493.172A.211.211,0,0,1,3.7,0" transform="translate(0 0)" fill="#192024"/>
        </g>
      </g>
      <g id="Group_332283" data-name="Group 332283" transform="translate(30.444 4.867)">
        <g id="Group_332250-2" data-name="Group 332250" transform="translate(0 0)" clip-path="url(#clip-path-2)">
          <path id="Path_337633-2" data-name="Path 337633" d="M2.522,0a.143.143,0,0,1,.141.117c.066.226.128.453.2.679A1.94,1.94,0,0,0,4.233,2.172c.227.069.457.131.685.2.085.025.126.072.126.14s-.041.116-.125.141c-.266.078-.536.143-.8.235A1.921,1.921,0,0,0,2.862,4.212c-.07.229-.132.461-.2.691-.026.088-.075.131-.144.129S2.405,4.99,2.381,4.9c-.071-.244-.134-.491-.212-.733A1.934,1.934,0,0,0,.805,2.847C.581,2.781.356,2.718.132,2.653.043,2.627,0,2.581,0,2.511s.042-.116.132-.142c.236-.068.475-.131.709-.2A1.948,1.948,0,0,0,2.195.767c.063-.216.123-.433.186-.65A.144.144,0,0,1,2.522,0" transform="translate(0 0)" fill="#192024"/>
        </g>
      </g>
    </g>
  </g>
</svg>