<svg xmlns="http://www.w3.org/2000/svg" xmlns:xlink="http://www.w3.org/1999/xlink" width="48" height="48" viewBox="0 0 48 48">
  <defs>
    <clipPath id="clip-path">
      <rect id="Rectangle_114002" data-name="Rectangle 114002" width="35.916" height="35.937" fill="#b2b9bf"/>
    </clipPath>
  </defs>
  <g id="Over_Ear_Headphones" data-name="Over Ear Headphones" transform="translate(2377 2932)">
    <rect id="Rectangle_114163" data-name="Rectangle 114163" width="48" height="48" transform="translate(-2377 -2932)" fill="#fff" opacity="0"/>
    <g id="Group_333618" data-name="Group 333618" transform="translate(-2370.696 -2926.001)" clip-path="url(#clip-path)">
      <path id="Path_340870" data-name="Path 340870" d="M29.26,35.937a1.768,1.768,0,0,1-1.282-1.8,1.814,1.814,0,0,1,.214-.734,65.685,65.685,0,0,0,4.342-11.065A1.762,1.762,0,0,1,33.7,21.05a.3.3,0,0,0,.23-.338c-.009-.42-.008-.841,0-1.26a.445.445,0,0,0-.193-.384A1.331,1.331,0,0,1,33.227,18a15.066,15.066,0,0,0-2.018-7.557A14.767,14.767,0,0,0,20.27,2.961,14.741,14.741,0,0,0,6.7,7.772a14.5,14.5,0,0,0-3.844,8.462c-.068.59-.1,1.185-.125,1.779a1.333,1.333,0,0,1-.494,1.039.505.505,0,0,0-.211.447c.01.4.009.794,0,1.191a.32.32,0,0,0,.239.367,1.706,1.706,0,0,1,1.14,1.231A67.024,67.024,0,0,0,7.646,33.17c.648,1.318.4,2.044-.879,2.767H5.786A2.249,2.249,0,0,1,4.564,34.7c-.537-1.153-1.093-2.3-1.6-3.467A67.981,67.981,0,0,1,.091,23.2a1.491,1.491,0,0,1,.244-1.491,1.563,1.563,0,0,0,.384-1.276c-.014-.3-.012-.607,0-.91A.527.527,0,0,0,.5,19.044,1.287,1.287,0,0,1,.014,18,16.523,16.523,0,0,1,.15,15.665,17.2,17.2,0,0,1,4.974,5.612C9.662.868,15.362-.981,21.87.5c7.024,1.6,11.489,6.091,13.507,13a20.146,20.146,0,0,1,.539,3.026v1.892a2.559,2.559,0,0,0-.678,2.312,2.34,2.34,0,0,1,0,.349.373.373,0,0,0,.129.311,2.014,2.014,0,0,1,.546.881v.841c-.041.121-.088.241-.124.363a70.954,70.954,0,0,1-4.411,11.254A2.15,2.15,0,0,1,30.1,35.937Z" transform="translate(0 0)" fill="#b2b9bf"/>
      <path id="Path_340871" data-name="Path 340871" d="M35.848,42.5a6,6,0,0,1-2.5-1.019,1.6,1.6,0,0,1-.6-2.054c1.09-2.742,2.2-5.475,3.248-8.235.3-.786.591-1.572.906-2.35a1.6,1.6,0,0,1,1.967-1.095,6.574,6.574,0,0,1,2.076.71,1.552,1.552,0,0,1,.786,1.748,41.252,41.252,0,0,1-1.423,4.354,72.31,72.31,0,0,1-2.875,6.759,1.89,1.89,0,0,1-.905,1.025,1.558,1.558,0,0,1-.68.158" transform="translate(-9.907 -8.423)" fill="#1a2024"/>
      <path id="Path_340872" data-name="Path 340872" d="M11.783,42.5a1.6,1.6,0,0,1-1.376-.849,51.662,51.662,0,0,1-2.252-5.008A62.061,62.061,0,0,1,6,30.505a1.626,1.626,0,0,1,.987-2.2,6.618,6.618,0,0,1,2.142-.615,1.547,1.547,0,0,1,1.535.947c.388.938.735,1.892,1.107,2.835,1.043,2.648,2.094,5.293,3.133,7.943a1.587,1.587,0,0,1-.681,2.112,6.42,6.42,0,0,1-2,.9c-.145.036-.3.049-.435.071" transform="translate(-1.789 -8.417)" fill="#1a2024"/>
    </g>
  </g>
</svg>