<svg xmlns:xlink="http://www.w3.org/1999/xlink" xmlns="http://www.w3.org/2000/svg" width="48" height="48" viewBox="0 0 48 48">
  <g id="Wired_Headphone" data-name="Wired Headphone" transform="translate(2127 2932)">
    <rect id="Rectangle_114170" data-name="Rectangle 114170" width="48" height="48" transform="translate(-2127 -2932)" fill="#fff" opacity="0"/>
    <g id="Group_333630" data-name="Group 333630" transform="translate(-2120 -2927)">
      <path id="Path_337917" data-name="Path 337917" d="M-413.6,96.613s5.162,8.862,11.357,2.667,9.034.6,9.034.6" transform="translate(420.047 -62.771)" fill="none" stroke="#1a2024" stroke-linecap="round" stroke-width="1"/>
      <path id="Path_337918" data-name="Path 337918" d="M28.378,34.854a1.715,1.715,0,0,1-1.243-1.743,1.76,1.76,0,0,1,.208-.711,63.706,63.706,0,0,0,4.211-10.732,1.709,1.709,0,0,1,1.133-1.253.291.291,0,0,0,.223-.328c-.009-.408-.008-.815,0-1.222a.431.431,0,0,0-.188-.373,1.291,1.291,0,0,1-.5-1.033,14.612,14.612,0,0,0-1.957-7.329A14.322,14.322,0,0,0,19.659,2.872,14.3,14.3,0,0,0,6.5,7.538,14.066,14.066,0,0,0,2.77,15.745c-.065.572-.1,1.15-.122,1.725a1.293,1.293,0,0,1-.479,1.008.49.49,0,0,0-.2.433c.01.385.009.77,0,1.155a.31.31,0,0,0,.232.356A1.655,1.655,0,0,1,3.3,21.617,65,65,0,0,0,7.415,32.171c.628,1.278.481,2.048-.853,2.683L6,34.936a1.8,1.8,0,0,1-1.571-1.278C3.905,32.54,3.366,31.43,2.878,30.3a65.932,65.932,0,0,1-2.79-7.8,1.446,1.446,0,0,1,.237-1.446A1.516,1.516,0,0,0,.7,19.817c-.014-.294-.011-.589,0-.883a.511.511,0,0,0-.212-.464,1.248,1.248,0,0,1-.472-1.01,16.025,16.025,0,0,1,.132-2.268,16.678,16.678,0,0,1,4.678-9.75C9.371.842,14.9-.952,21.211.483c6.812,1.549,11.143,5.907,13.1,12.611a19.54,19.54,0,0,1,.522,2.935v1.835a2.482,2.482,0,0,0-.657,2.242,2.271,2.271,0,0,1,0,.339.362.362,0,0,0,.126.3,1.953,1.953,0,0,1,.53.855v.815c-.04.117-.085.234-.12.352a68.817,68.817,0,0,1-4.278,10.914,2.085,2.085,0,0,1-1.243,1.17Z" transform="translate(0 0)" fill="#b2b9bf"/>
      <path id="Path_337919" data-name="Path 337919" d="M35.75,42.054a5.818,5.818,0,0,1-2.424-.988,1.552,1.552,0,0,1-.581-1.992c1.057-2.66,2.138-5.31,3.15-7.987.288-.762.573-1.525.879-2.28a1.549,1.549,0,0,1,1.908-1.062,6.376,6.376,0,0,1,2.014.689,1.506,1.506,0,0,1,.762,1.695,40.008,40.008,0,0,1-1.38,4.223,70.131,70.131,0,0,1-2.789,6.555,1.833,1.833,0,0,1-.878.994,1.511,1.511,0,0,1-.66.153" transform="translate(-10.59 -9.004)" fill="#1a2024"/>
      <path id="Path_337920" data-name="Path 337920" d="M11.606,42.052a1.555,1.555,0,0,1-1.335-.824,50.106,50.106,0,0,1-2.184-4.857A60.19,60.19,0,0,1,5.994,30.42a1.577,1.577,0,0,1,.957-2.13,6.419,6.419,0,0,1,2.078-.6,1.5,1.5,0,0,1,1.488.918c.376.909.713,1.835,1.073,2.75,1.012,2.568,2.031,5.134,3.039,7.7a1.539,1.539,0,0,1-.661,2.048,6.227,6.227,0,0,1-1.941.871c-.141.035-.288.047-.422.069" transform="translate(-1.912 -8.997)" fill="#1a2024"/>
      <rect id="Rectangle_113694" data-name="Rectangle 113694" width="34.834" height="34.854" transform="translate(0 0)" fill="none"/>
    </g>
  </g>
</svg>