<svg xmlns="http://www.w3.org/2000/svg" xmlns:xlink="http://www.w3.org/1999/xlink" width="48" height="48" viewBox="0 0 48 48">
  <defs>
    <clipPath id="clip-path">
      <rect id="Rectangle_114004" data-name="Rectangle 114004" width="33.345" height="35.613" fill="none"/>
    </clipPath>
  </defs>
  <g id="Wired_Earphones" data-name="Wired Earphones" transform="translate(2127 2999)">
    <rect id="Rectangle_114169" data-name="Rectangle 114169" width="48" height="48" transform="translate(-2127 -2999)" fill="#fff" opacity="0"/>
    <g id="Group_333628" data-name="Group 333628" transform="translate(-2120 -2993)" clip-path="url(#clip-path)">
      <path id="Path_340877" data-name="Path 340877" d="M22.775,7.515a4.889,4.889,0,0,0-.634-1.677,5.741,5.741,0,0,1,.692,2.2,4.831,4.831,0,0,0-.059-.527" transform="translate(-11.346 -2.992)"/>
      <path id="Path_340878" data-name="Path 340878" d="M29.236,52.746c0,.658,0,1.315,0,1.973,0,.276-.007.563-.379.567s-.392-.272-.392-.554c0-1.219.008-2.439,0-3.659a2.727,2.727,0,0,0-2.013-2.695,3.525,3.525,0,0,0-.921-.115c-1.089,0-2.177.006-3.264,0a3.447,3.447,0,0,1-3.417-3.4c-.011-.873,0-1.745,0-2.618,0-.173,0-.327-.2-.416a1.437,1.437,0,0,1-.843-1.388c-.017-.573,0-1.148-.007-1.722,0-.222.091-.326.322-.324.729.006,1.459,0,2.188,0,.223,0,.324.088.321.32-.008.729,0,1.459-.006,2.188a.953.953,0,0,1-.666.856.522.522,0,0,0-.345.579c.016.729,0,1.459.005,2.188a2.772,2.772,0,0,0,2.956,2.971c1.076.007,2.152,0,3.228,0a3.447,3.447,0,0,1,3.435,3.42c.008.61,0,1.219,0,1.829Z" transform="translate(-9.118 -19.672)" fill="#b2b9bf"/>
      <path id="Path_340879" data-name="Path 340879" d="M45.675,57.828c0-1.04,0-2.08,0-3.121a.41.41,0,0,0-.267-.443,1.139,1.139,0,0,1-.756-1.209c.042-.6.018-1.2.006-1.793-.005-.264.063-.394.359-.388.705.015,1.411.008,2.116,0,.206,0,.359.038.354.285a18.281,18.281,0,0,1-.039,2.041,1.262,1.262,0,0,1-.7,1.021.53.53,0,0,0-.309.57c.008,2.009,0,4.018,0,6.026a3.134,3.134,0,0,1-.01.358.345.345,0,0,1-.36.33.354.354,0,0,1-.381-.311,2.416,2.416,0,0,1-.018-.429q0-1.471,0-2.941" transform="translate(-22.881 -26.069)" fill="#b2b9bf"/>
      <path id="Path_340880" data-name="Path 340880" d="M11.5,5.382a1.726,1.726,0,0,0-.01-.224c0-.039,0-.073,0-.107a5.741,5.741,0,0,0-.692-2.2.079.079,0,0,1-.02-.034,8.745,8.745,0,0,0-.917-1.336S5.647-2.619.4,2.832c0,0-.453.336-.395,2.5S.064,7.707.513,8.156,3.506,11.11,6.88,10.876a8.166,8.166,0,0,0,1.653-.5.9.9,0,0,1,.141.57c0,.132,0,.263,0,.395,0,2.1.01,4.208,0,6.314,0,.341.112.463.458.453.634-.024,1.268,0,1.9-.01.468,0,.478,0,.478-.483V5.577c0-.063,0-.132,0-.2M.805,7.815c-.3,0-.541-1.063-.541-2.374S.508,3.066.805,3.066s.546,1.063.546,2.374S1.107,7.815.805,7.815" transform="translate(0 0)" fill="#1a2024"/>
      <path id="Path_340881" data-name="Path 340881" d="M1.628,8.662c0,1.312-.244,2.374-.546,2.374S.541,9.974.541,8.662s.244-2.374.541-2.374.546,1.063.546,2.374" transform="translate(-0.277 -3.222)"/>
      <path id="Path_340882" data-name="Path 340882" d="M1.628,8.662c0,1.312-.244,2.374-.546,2.374S.541,9.974.541,8.662s.244-2.374.541-2.374.546,1.063.546,2.374" transform="translate(-0.277 -3.222)" fill="#fff"/>
      <path id="Path_340883" data-name="Path 340883" d="M55.836,14.5c-5.251-5.451-9.464-1.355-9.464-1.355a6.611,6.611,0,0,0-1.609,3.437c-.01.049-.015.093-.02.137a4.426,4.426,0,0,0-.068.765c-.015,1.975,0,3.949,0,5.919,0,2.1,0,4.188-.01,6.28,0,.351.112.458.453.444.619-.02,1.243,0,1.867,0,.517,0,.517,0,.517-.517V23.039c0-.7.2-.848.883-.673a5.41,5.41,0,0,0,.8.151s0,0,.01,0c.1.02.156.029.156.029,3.379.239,5.914-2.267,6.368-2.716s.453-.663.507-2.828-.39-2.5-.39-2.5m-.41,4.983c-.3,0-.546-1.063-.546-2.374s.244-2.37.546-2.37.546,1.063.546,2.37-.244,2.374-.546,2.374" transform="translate(-22.886 -5.98)" fill="#1a2024"/>
      <path id="Path_340884" data-name="Path 340884" d="M66.713,20.338c0,1.312-.244,2.374-.546,2.374s-.546-1.063-.546-2.374.244-2.37.546-2.37.546,1.063.546,2.37" transform="translate(-33.626 -9.207)"/>
      <path id="Path_340885" data-name="Path 340885" d="M66.713,20.338c0,1.312-.244,2.374-.546,2.374s-.546-1.063-.546-2.374.244-2.37.546-2.37.546,1.063.546,2.37" transform="translate(-33.626 -9.207)" fill="#fff"/>
    </g>
  </g>
</svg>