<svg xmlns="http://www.w3.org/2000/svg" xmlns:xlink="http://www.w3.org/1999/xlink" width="48" height="48" viewBox="0 0 48 48">
  <defs>
    <clipPath id="clip-path">
      <rect id="Rectangle_113693" data-name="Rectangle 113693" width="27.66" height="36.99" fill="none"/>
    </clipPath>
    <clipPath id="clip-path-3">
      <rect id="Rectangle_113691" data-name="Rectangle 113691" width="18.44" height="29.54" fill="#b2b9bf"/>
    </clipPath>
  </defs>
  <g id="Wireless_Speakers" data-name="Wireless Speakers" transform="translate(2127 2866)">
    <rect id="Rectangle_114171" data-name="Rectangle 114171" width="48" height="48" transform="translate(-2127 -2866)" fill="#fff" opacity="0"/>
    <g id="Group_333634" data-name="Group 333634" transform="translate(-2117 -2860)">
      <g id="Group_332738" data-name="Group 332738" clip-path="url(#clip-path)">
        <g id="Group_332737" data-name="Group 332737" transform="translate(0 0)">
          <g id="Group_332736" data-name="Group 332736" clip-path="url(#clip-path)">
            <g id="Group_332735" data-name="Group 332735" transform="translate(4.61 5.145)" style="isolation: isolate">
              <g id="Group_332734" data-name="Group 332734">
                <g id="Group_332733" data-name="Group 332733" clip-path="url(#clip-path-3)">
                  <path id="Path_337915" data-name="Path 337915" d="M30.877,16.545a6.9,6.9,0,0,1,2.388,5.227v17.4a6.915,6.915,0,0,1-6.915,6.915h-4.61a6.915,6.915,0,0,1-6.915-6.915v-17.4a6.9,6.9,0,0,1,2.387-5.227c.515,1.654,3.375,2.922,6.833,2.922s6.317-1.268,6.833-2.922" transform="translate(-14.824 -16.545)" fill="#b2b9bf" fill-rule="evenodd"/>
                </g>
              </g>
            </g>
            <path id="Path_337916" data-name="Path 337916" d="M38.437,11.881a8.988,8.988,0,0,0-3.861-.769,8.986,8.986,0,0,0-3.861.769,3.122,3.122,0,0,0-.605.383,3.113,3.113,0,0,0,.607.383,8.98,8.98,0,0,0,3.859.769,8.984,8.984,0,0,0,3.861-.769,3.118,3.118,0,0,0,.605-.383,3.132,3.132,0,0,0-.605-.383" transform="translate(-20.746 -7.654)" fill="#1a2024" fill-rule="evenodd"/>
          </g>
        </g>
      </g>
    </g>
  </g>
</svg>